<?xml version="1.0" standalone="no"?>
<!DOCTYPE svg PUBLIC "-//W3C//DTD SVG 20010904//EN"
 "http://www.w3.org/TR/2001/REC-SVG-20010904/DTD/svg10.dtd">
<svg version="1.0" xmlns="http://www.w3.org/2000/svg"
 width="564.000000pt" height="564.000000pt" viewBox="0 0 564.000000 564.000000"
 preserveAspectRatio="xMidYMid meet">
<metadata>
Created by potrace 1.14, written by Peter Selinger 2001-2017
</metadata>
<g transform="translate(0.000000,564.000000) scale(0.100000,-0.100000)"
fill="#000000" stroke="none">
<path d="M1661 4580 c-100 -21 -264 -87 -397 -159 -75 -40 -162 -116 -214
-186 -44 -60 -120 -200 -120 -222 0 -9 -9 -32 -20 -52 -32 -61 -50 -112 -50
-146 0 -24 -8 -41 -30 -62 -19 -18 -33 -42 -37 -66 -5 -34 -9 -38 -32 -35 -14
1 -35 10 -46 20 -13 11 -25 14 -34 9 -9 -6 -10 -11 -2 -15 8 -5 8 -13 0 -28
-8 -15 -14 -17 -22 -9 -16 16 -58 13 -78 -5 -16 -14 -18 -14 -24 5 -9 29 -34
15 -30 -17 2 -15 -1 -32 -6 -38 -6 -7 -4 -34 6 -70 8 -32 15 -71 15 -87 0 -18
10 -37 27 -53 16 -14 36 -33 46 -41 22 -21 22 -26 -5 -38 -13 -6 -26 -24 -30
-42 -6 -24 -16 -34 -36 -39 -148 -33 -221 -76 -254 -151 -41 -93 6 -152 154
-193 156 -43 325 -19 387 57 28 35 29 35 60 19 17 -9 43 -15 58 -14 16 1 44
-4 63 -10 19 -6 48 -13 63 -16 39 -7 105 -38 111 -53 3 -7 1 -13 -4 -13 -9 0
-45 -71 -85 -165 -9 -22 -41 -114 -72 -205 -72 -210 -80 -230 -99 -230 -38 0
-49 -95 -29 -271 l7 -66 -36 -21 c-30 -18 -36 -27 -36 -55 0 -21 8 -41 20 -52
26 -23 25 -39 -2 -58 -13 -8 -41 -32 -63 -54 -31 -30 -53 -42 -100 -52 -81
-17 -135 -51 -163 -99 -31 -56 -28 -74 23 -125 49 -49 141 -92 222 -103 26 -3
57 -9 68 -11 51 -14 204 -11 265 3 76 18 151 13 213 -16 52 -23 136 -47 202
-56 28 -3 57 -10 65 -14 19 -10 216 -23 320 -22 257 4 286 2 319 -14 24 -12
58 -17 117 -16 54 1 88 -3 95 -11 7 -7 29 -11 54 -9 28 3 55 -3 81 -16 82 -42
173 -30 241 31 12 11 34 21 50 22 91 10 121 15 146 24 16 6 52 14 80 17 29 3
76 17 105 30 29 13 56 24 60 24 11 1 62 72 62 87 0 35 -47 89 -103 119 -50 27
-28 39 74 40 116 1 182 10 234 34 75 34 106 75 99 134 -4 40 -18 52 -136 111
l-103 52 -2 63 c-1 34 -8 79 -16 99 -20 49 -15 160 7 176 20 15 21 39 2 54
-16 13 -26 55 -17 70 4 6 26 3 62 -8 52 -18 95 -23 269 -36 41 -3 96 -8 122
-11 26 -3 105 -6 176 -6 l128 -1 -4 -57 c-3 -51 -1 -59 19 -74 27 -19 129 -22
177 -5 41 14 59 63 42 114 -14 43 -7 55 33 55 18 0 52 5 77 11 76 18 83 19
141 24 72 5 104 13 156 36 24 10 47 19 53 19 5 0 22 19 37 42 15 24 34 52 44
63 9 11 19 32 23 46 6 27 43 58 77 64 10 2 23 6 27 9 4 2 8 -3 9 -12 7 -82 78
-126 220 -135 82 -6 148 7 195 38 34 23 38 30 38 68 0 33 -6 51 -27 74 -29 32
-107 75 -156 87 -25 6 -28 11 -23 31 15 59 17 113 6 155 -22 82 -23 105 -6
119 9 8 16 27 16 43 0 34 -28 99 -47 111 -8 5 -13 27 -13 54 0 117 -107 208
-271 228 -51 6 -58 10 -72 40 -84 176 -381 489 -553 585 -27 15 -58 32 -69 38
-129 73 -286 112 -444 112 -202 -1 -297 -28 -421 -120 -47 -34 -94 -66 -105
-70 -142 -55 -154 -62 -234 -145 -76 -80 -80 -82 -96 -65 -9 10 -14 23 -11 29
4 5 -6 23 -21 40 -43 46 -53 59 -53 70 0 15 -43 104 -67 138 -13 17 -23 34
-23 38 0 12 -143 178 -215 250 -39 39 -91 81 -115 93 -72 38 -232 96 -320 116
-48 10 -425 15 -469 6z m-665 -1250 c35 -14 56 -41 42 -57 -5 -6 -8 -22 -6
-35 3 -21 0 -23 -32 -20 -19 2 -51 -2 -72 -9 -40 -13 -71 -5 -118 31 l-25 19
42 40 c37 37 46 41 92 41 27 0 62 -5 77 -10z m-412 -202 c7 -10 35 -25 62 -36
52 -19 53 -23 39 -97 -2 -11 -4 -26 -4 -34 -1 -11 -19 -12 -97 -7 -107 7 -131
16 -140 51 -3 14 -11 25 -17 25 -6 0 -8 3 -4 6 3 4 -3 14 -15 24 -31 25 -18
67 25 78 52 15 137 9 151 -10z m2844 -1463 c19 -4 31 -12 29 -18 -4 -14 -94
-19 -102 -7 -9 15 7 41 24 36 9 -2 31 -8 49 -11z"/>
</g>
</svg>
