<svg xmlns="http://www.w3.org/2000/svg">

<symbol viewBox="0 0 52 44" id="car">
<path d="M37.3988 36.5498V14.45H3.39893V36.5498C3.39893 37.4888 4.15999 38.2498 5.09892 38.2498H35.6988C36.6377 38.2498 37.3988 37.4888 37.3988 36.5498Z" fill="#289BC3"/>
<path d="M13.6015 33.1498H10.2015C7.38486 33.1498 5.10156 35.4331 5.10156 38.2498C5.10156 41.0664 7.38486 43.3497 10.2015 43.3497H13.6015C16.4182 43.3497 18.7015 41.0664 18.7015 38.2498C18.7015 35.4331 16.4182 33.1498 13.6015 33.1498Z" fill="#32283C"/>
<path d="M44.1987 33.1498H40.7987C37.982 33.1498 35.6987 35.4331 35.6987 38.2498C35.6987 41.0665 37.982 43.3498 40.7987 43.3498H44.1987C47.0154 43.3498 49.2987 41.0665 49.2987 38.2498C49.2987 35.4331 47.0154 33.1498 44.1987 33.1498Z" fill="#32283C"/>
<path d="M40.7987 43.3498C43.6153 43.3498 45.8987 41.0665 45.8987 38.2498C45.8987 35.4332 43.6153 33.1498 40.7987 33.1498C37.9821 33.1498 35.6987 35.4332 35.6987 38.2498C35.6987 41.0665 37.9821 43.3498 40.7987 43.3498Z" fill="#555A6E"/>
<path d="M40.7976 39.9498C41.7365 39.9498 42.4976 39.1887 42.4976 38.2498C42.4976 37.3109 41.7365 36.5498 40.7976 36.5498C39.8588 36.5498 39.0977 37.3109 39.0977 38.2498C39.0977 39.1887 39.8588 39.9498 40.7976 39.9498Z" fill="#E6E6EB"/>
<path d="M30.601 33.1498H27.201C24.3844 33.1498 22.1011 35.4331 22.1011 38.2498C22.1011 41.0665 24.3844 43.3498 27.201 43.3498H30.601C33.4177 43.3498 35.701 41.0665 35.701 38.2498C35.701 35.4331 33.4177 33.1498 30.601 33.1498Z" fill="#32283C"/>
<path d="M47.6022 16.15H22.1023C21.1634 16.15 20.4023 16.911 20.4023 17.85V19.5499H47.6022C48.5411 19.5499 49.3022 18.7889 49.3022 17.85C49.3022 16.911 48.5411 16.15 47.6022 16.15Z" fill="#A5C3DC"/>
<path d="M30.6023 16.15H22.1023C21.1634 16.15 20.4023 16.911 20.4023 17.85V19.5499H30.6023C31.5412 19.5499 32.3023 18.7889 32.3023 17.85C32.3023 16.911 31.5412 16.15 30.6023 16.15Z" fill="#D7E6F0"/>
<path d="M20.4023 19.5499H47.6022V28.0498H20.4023V19.5499Z" fill="#463C4B"/>
<path d="M20.4023 19.5499H30.6023V28.0498H20.4023V19.5499Z" fill="#555A6E"/>
<path d="M49.3022 38.2498H22.1023C21.1634 38.2498 20.4023 37.4887 20.4023 36.5498V28.0498H47.6022C49.4799 28.0498 51.0022 29.572 51.0022 31.4498V36.5498C51.0022 37.4887 50.2411 38.2498 49.3022 38.2498Z" fill="#A5C3DC"/>
<path d="M32.3023 38.2498H22.1023C21.1634 38.2498 20.4023 37.4887 20.4023 36.5498V28.0498H30.6023C32.48 28.0498 34.0023 29.572 34.0023 31.4498V36.5498C34.0023 37.4887 33.2412 38.2498 32.3023 38.2498Z" fill="#D7E6F0"/>
<path d="M38.1072 31.4498H46.8905C48.2206 31.4498 49.2988 32.528 49.2988 33.8582C49.2988 35.1882 48.2205 36.2665 46.8904 36.2665H38.1071C36.7771 36.2665 35.6987 35.1883 35.6987 33.8582C35.6988 32.528 36.7771 31.4498 38.1072 31.4498Z" fill="#555A6E"/>
<path d="M38.1109 35.1332C38.8151 35.1332 39.3859 34.5623 39.3859 33.8582C39.3859 33.154 38.8151 32.5832 38.1109 32.5832C37.4068 32.5832 36.8359 33.154 36.8359 33.8582C36.8359 34.5623 37.4068 35.1332 38.1109 35.1332Z" fill="#00D2D2"/>
<path d="M46.8883 35.1332C47.5924 35.1332 48.1633 34.5623 48.1633 33.8582C48.1633 33.154 47.5924 32.5832 46.8883 32.5832C46.1841 32.5832 45.6133 33.154 45.6133 33.8582C45.6133 34.5623 46.1841 35.1332 46.8883 35.1332Z" fill="#00D2D2"/>
<path d="M16.1497 0H11.0497C10.5803 0 10.1997 0.380586 10.1997 0.849996C10.1997 1.31941 10.5803 1.69999 11.0497 1.69999C14.3305 1.69999 16.9997 4.36919 16.9997 7.64996C16.9997 8.11937 17.3803 8.49996 17.8497 8.49996H22.9496C23.4191 8.49996 23.7996 8.11937 23.7996 7.64996C23.7996 3.43175 20.3679 0 16.1497 0Z" fill="#A5C3DC"/>
<path d="M29.7494 0H24.6495C20.4313 0 16.9995 3.43175 16.9995 7.64996C16.9995 8.11937 17.3801 8.49996 17.8495 8.49996H22.9495C23.4189 8.49996 23.7995 8.11937 23.7995 7.64996C23.7995 4.36919 26.4687 1.69999 29.7494 1.69999C30.2189 1.69999 30.5994 1.31941 30.5994 0.849996C30.5994 0.380586 30.2189 0 29.7494 0Z" fill="#A5C3DC"/>
<path d="M33.1497 0H28.0497C27.5803 0 27.1997 0.380586 27.1997 0.849996C27.1997 1.31941 27.5803 1.69999 28.0497 1.69999C29.4558 1.69999 30.5997 2.84387 30.5997 4.24998C30.5997 5.65608 29.4558 6.79996 28.0497 6.79996C27.5803 6.79996 27.1997 7.18055 27.1997 7.64996C27.1997 8.11937 27.5803 8.49996 28.0497 8.49996H33.1497C35.4931 8.49996 37.3997 6.59342 37.3997 4.24998C37.3997 1.90654 35.4931 0 33.1497 0Z" fill="#A5C3DC"/>
<path d="M12.7489 6.79996C11.3428 6.79996 10.1989 5.65608 10.1989 4.24998C10.1989 2.84387 11.3428 1.69999 12.7489 1.69999C13.2183 1.69999 13.5989 1.31941 13.5989 0.849996C13.5989 0.380586 13.2183 0 12.7489 0H7.6489C5.30547 0 3.39893 1.90654 3.39893 4.24998C3.39893 6.59342 5.30547 8.49996 7.6489 8.49996H12.7489C13.2183 8.49996 13.5989 8.11937 13.5989 7.64996C13.5989 7.18055 13.2183 6.79996 12.7489 6.79996Z" fill="#A5C3DC"/>
<path d="M39.0998 8.49994H1.69999C0.761065 8.49994 0 9.261 0 10.1999V12.7499C0 13.6888 0.761065 14.4499 1.69999 14.4499H39.0998C40.0387 14.4499 40.7998 13.6888 40.7998 12.7499V10.1999C40.7998 9.261 40.0387 8.49994 39.0998 8.49994Z" fill="#289BC3"/>
<path d="M18.6988 38.2498H5.09892C4.15999 38.2498 3.39893 37.4887 3.39893 36.5498V19.5499H20.3988V36.5498C20.3988 37.4887 19.6378 38.2498 18.6988 38.2498Z" fill="#00D2D2"/>
<path d="M20.3999 8.49994H1.69999C0.761065 8.49994 0 9.261 0 10.1999V12.7499C0 13.6888 0.761065 14.4499 1.69999 14.4499H20.3999C21.3388 14.4499 22.0999 13.6888 22.0999 12.7499V10.1999C22.0999 9.261 21.3388 8.49994 20.3999 8.49994Z" fill="#00D2D2"/>
<path d="M11.8978 12.7499C11.8978 13.6888 12.6589 14.4499 13.5978 14.4499H8.49784C7.55892 14.4499 6.79785 13.6888 6.79785 12.7499V10.1999C6.79785 9.261 7.55892 8.49994 8.49784 8.49994H13.5978C12.6589 8.49994 11.8978 9.261 11.8978 10.1999V12.7499Z" fill="#D7E6F0"/>
<path d="M28.9031 12.75C28.9031 13.6889 28.1421 14.45 27.2031 14.45H32.3031C33.242 14.45 34.0031 13.6889 34.0031 12.75V10.2C34.0031 9.26106 33.242 8.5 32.3031 8.5H27.2031C28.1421 8.5 28.9031 9.26106 28.9031 10.2V12.75Z" fill="#A5C3DC"/>
<path d="M28.0529 8.49996H17.0029V7.64996C17.0029 3.43175 20.4347 0 24.6529 0H28.0529C30.3963 0 32.3028 1.90654 32.3028 4.24998C32.3028 6.59342 30.3963 8.49996 28.0529 8.49996ZM18.7635 6.79996H28.0529C29.459 6.79996 30.6029 5.65608 30.6029 4.24998C30.6029 2.84387 29.459 1.69999 28.0529 1.69999H24.6529C21.6606 1.69999 19.1771 3.92029 18.7635 6.79996Z" fill="#D7E6F0"/>
<path d="M18.6988 8.49996H7.6489C5.30547 8.49996 3.39893 6.59342 3.39893 4.24998C3.39893 1.90654 5.30547 0 7.6489 0H11.0489C15.2671 0 18.6988 3.43175 18.6988 7.64996V8.49996ZM7.6489 1.69999C6.2428 1.69999 5.09892 2.84387 5.09892 4.24998C5.09892 5.65608 6.2428 6.79996 7.6489 6.79996H16.9383C16.5246 3.92029 14.0411 1.69999 11.0489 1.69999H7.6489Z" fill="#D7E6F0"/>
<path d="M27.201 43.3498C30.0177 43.3498 32.301 41.0665 32.301 38.2498C32.301 35.4332 30.0177 33.1498 27.201 33.1498C24.3844 33.1498 22.1011 35.4332 22.1011 38.2498C22.1011 41.0665 24.3844 43.3498 27.201 43.3498Z" fill="#555A6E"/>
<path d="M27.2 39.9498C28.1389 39.9498 28.9 39.1887 28.9 38.2498C28.9 37.3109 28.1389 36.5498 27.2 36.5498C26.2611 36.5498 25.5 37.3109 25.5 38.2498C25.5 39.1887 26.2611 39.9498 27.2 39.9498Z" fill="#E6E6EB"/>
<path d="M10.2015 43.3497C13.0182 43.3497 15.3015 41.0664 15.3015 38.2498C15.3015 35.4331 13.0182 33.1498 10.2015 33.1498C7.3849 33.1498 5.10156 35.4331 5.10156 38.2498C5.10156 41.0664 7.3849 43.3497 10.2015 43.3497Z" fill="#555A6E"/>
<path d="M10.1966 39.9498C11.1355 39.9498 11.8966 39.1887 11.8966 38.2498C11.8966 37.3109 11.1355 36.5498 10.1966 36.5498C9.25769 36.5498 8.49658 37.3109 8.49658 38.2498C8.49658 39.1887 9.25769 39.9498 10.1966 39.9498Z" fill="#E6E6EB"/>
</symbol>


<symbol viewBox="0 0 54 54" id="fast-delivery">
<path d="M43.6875 30.375H35.4375C35.2137 30.375 34.9991 30.2861 34.8409 30.1279C34.6826 29.9696 34.5938 29.755 34.5938 29.5312C34.5938 29.3075 34.6826 29.0929 34.8409 28.9346C34.9991 28.7764 35.2137 28.6875 35.4375 28.6875H43.6875C43.9113 28.6875 44.1259 28.7764 44.2841 28.9346C44.4423 29.0929 44.5312 29.3075 44.5312 29.5312C44.5312 29.755 44.4423 29.9696 44.2841 30.1279C44.1259 30.2861 43.9113 30.375 43.6875 30.375Z" fill="#E0E2E5"/>
<path d="M25.3125 19.4062L27 39.6562V41.3438H37.125V39.6562L38.8125 19.4062H25.3125Z" fill="#93573D"/>
<path d="M16.875 19.4062V18.5625H13.5V21.0938H10.125V29.5312H13.5H16.875V28.6875H20.25V19.4062H16.875Z" fill="#FDD14B"/>
<path d="M13.5 32.0625C13.2762 32.0625 13.0616 31.9736 12.9034 31.8154C12.7451 31.6571 12.6562 31.4425 12.6562 31.2188V21.9375C12.6562 21.7137 12.7451 21.4991 12.9034 21.3409C13.0616 21.1826 13.2762 21.0938 13.5 21.0938C13.7238 21.0938 13.9384 21.1826 14.0966 21.3409C14.2549 21.4991 14.3438 21.7137 14.3438 21.9375V31.2188C14.3438 31.4425 14.2549 31.6571 14.0966 31.8154C13.9384 31.9736 13.7238 32.0625 13.5 32.0625Z" fill="#E4BC43"/>
<path d="M16.9957 33.75C16.7733 33.75 16.5599 33.6622 16.4019 33.5057C16.2439 33.3492 16.1541 33.1366 16.1519 32.9142L16.0313 20.258C16.0292 20.0342 16.116 19.8188 16.2727 19.659C16.4295 19.4993 16.6432 19.4084 16.867 19.4062C17.0908 19.4041 17.3063 19.491 17.466 19.6477C17.6257 19.8044 17.7167 20.0182 17.7188 20.242L17.8393 32.8982C17.8415 33.122 17.7546 33.3374 17.598 33.4971C17.4413 33.6569 17.2276 33.7478 17.0038 33.75H16.9957Z" fill="#E4BC43"/>
<path d="M9.28125 27.8438L10.9688 39.6562V41.3438H21.0938V39.6562V27.8438H9.28125Z" fill="#E74444"/>
<path d="M48.9375 30.375H47.25C47.0262 30.375 46.8116 30.2861 46.6534 30.1279C46.4951 29.9696 46.4062 29.755 46.4062 29.5312C46.4062 29.3075 46.4951 29.0929 46.6534 28.9346C46.8116 28.7764 47.0262 28.6875 47.25 28.6875H48.9375C49.1613 28.6875 49.3759 28.7764 49.5341 28.9346C49.6924 29.0929 49.7812 29.3075 49.7812 29.5312C49.7812 29.755 49.6924 29.9696 49.5341 30.1279C49.3759 30.2861 49.1613 30.375 48.9375 30.375Z" fill="#E0E2E5"/>
<path d="M38.8125 19.4062L38.5309 22.7812H25.5941L25.3125 19.4062H38.8125Z" fill="#A4D4F4"/>
<path d="M23.6737 14.3437C23.521 14.3436 23.3712 14.302 23.2403 14.2235C23.1094 14.145 23.0022 14.0324 22.9302 13.8977C22.8583 13.7631 22.8242 13.6114 22.8316 13.4589C22.839 13.3064 22.8877 13.1588 22.9724 13.0318L23.774 11.8288C23.8936 11.6494 23.94 11.4309 23.9036 11.2184C23.8672 11.0058 23.7507 10.8153 23.5782 10.6859L22.7574 10.07C22.24 9.68164 21.891 9.10997 21.7819 8.47235C21.6728 7.83472 21.8119 7.17953 22.1706 6.64123L22.9722 5.43815C23.0337 5.34596 23.1127 5.26677 23.2048 5.20512C23.2968 5.14346 23.4001 5.10055 23.5088 5.07882C23.6175 5.05709 23.7293 5.05698 23.838 5.07849C23.9467 5.09999 24.0501 5.1427 24.1423 5.20417C24.2345 5.26564 24.3137 5.34466 24.3754 5.43673C24.437 5.5288 24.4799 5.63211 24.5017 5.74077C24.5234 5.84943 24.5235 5.9613 24.502 6.07C24.4805 6.1787 24.4378 6.2821 24.3763 6.37429L23.5744 7.57727C23.4548 7.75672 23.4085 7.97516 23.4449 8.18773C23.4813 8.40029 23.5977 8.59084 23.7703 8.72023L24.5911 9.33606C25.1086 9.72439 25.4577 10.296 25.5669 10.9337C25.6762 11.5713 25.5372 12.2266 25.1785 12.765L24.3769 13.968C24.2998 14.0838 24.1952 14.1787 24.0725 14.2443C23.9498 14.3098 23.8128 14.344 23.6737 14.3437Z" fill="#E0E2E5"/>
<path d="M16.9237 14.3438C16.771 14.3437 16.6212 14.3022 16.4903 14.2236C16.3594 14.1451 16.2522 14.0325 16.1802 13.8978C16.1083 13.7632 16.0742 13.6115 16.0816 13.4591C16.089 13.3066 16.1377 13.1589 16.2224 13.0319L17.024 11.8289C17.1436 11.6495 17.19 11.4311 17.1536 11.2185C17.1172 11.0059 17.0007 10.8154 16.8282 10.686L16.0074 10.0701C15.49 9.68177 15.141 9.11009 15.0319 8.47247C14.9228 7.83485 15.0619 7.17965 15.4206 6.64136L16.2222 5.43828C16.3463 5.25208 16.5394 5.12282 16.7588 5.07894C16.9782 5.03506 17.2061 5.08015 17.3923 5.20429C17.5785 5.32843 17.7078 5.52145 17.7517 5.7409C17.7955 5.96034 17.7504 6.18822 17.6263 6.37442L16.8244 7.57739C16.7048 7.75685 16.6585 7.97529 16.6949 8.18785C16.7313 8.40042 16.8477 8.59096 17.0203 8.72036L17.8411 9.33619C18.3586 9.72451 18.7077 10.2962 18.8169 10.9338C18.9262 11.5714 18.7872 12.2267 18.4285 12.7651L17.6269 13.9682C17.5498 14.0839 17.4452 14.1788 17.3225 14.2444C17.1998 14.3099 17.0628 14.3441 16.9237 14.3438Z" fill="#E0E2E5"/>
<path d="M30.3299 14.3437C30.1772 14.3436 30.0274 14.3021 29.8965 14.2235C29.7656 14.145 29.6584 14.0324 29.5865 13.8977C29.5145 13.7631 29.4804 13.6114 29.4878 13.4589C29.4952 13.3064 29.5439 13.1588 29.6286 13.0318L30.4307 11.8288C30.5503 11.6494 30.5967 11.4309 30.5603 11.2184C30.5238 11.0058 30.4074 10.8153 30.2349 10.6859L29.414 10.0701C28.8966 9.68182 28.5474 9.11018 28.4382 8.47254C28.329 7.8349 28.468 7.17964 28.8266 6.64125L29.6282 5.43817C29.7523 5.25189 29.9454 5.12255 30.1649 5.07861C30.2736 5.05686 30.3855 5.05672 30.4942 5.07821C30.603 5.0997 30.7064 5.1424 30.7986 5.20387C30.8909 5.26534 30.9701 5.34437 31.0318 5.43646C31.0935 5.52854 31.1364 5.63188 31.1582 5.74057C31.18 5.84925 31.1801 5.96116 31.1586 6.0699C31.1371 6.17863 31.0944 6.28207 31.0329 6.37431L30.2314 7.57729C30.1118 7.75673 30.0654 7.97516 30.1018 8.18772C30.1382 8.40029 30.2546 8.59084 30.4271 8.72025L31.248 9.33608C31.7655 9.72437 32.1146 10.296 32.2239 10.9337C32.3331 11.5713 32.1941 12.2266 31.8354 12.765L31.0338 13.9681C30.9566 14.0839 30.8519 14.1789 30.7291 14.2444C30.6063 14.31 30.4691 14.3441 30.3299 14.3437Z" fill="#E0E2E5"/>
<path d="M51.4688 25.3125H42.1875C41.9637 25.3125 41.7491 25.2236 41.5909 25.0654C41.4326 24.9071 41.3438 24.6925 41.3438 24.4688C41.3438 24.245 41.4326 24.0304 41.5909 23.8721C41.7491 23.7139 41.9637 23.625 42.1875 23.625H51.4688C51.6925 23.625 51.9071 23.7139 52.0654 23.8721C52.2236 24.0304 52.3125 24.245 52.3125 24.4688C52.3125 24.6925 52.2236 24.9071 52.0654 25.0654C51.9071 25.2236 51.6925 25.3125 51.4688 25.3125Z" fill="#E0E2E5"/>
<path d="M45.5625 35.4375H40.5C40.2762 35.4375 40.0616 35.3486 39.9034 35.1904C39.7451 35.0321 39.6562 34.8175 39.6562 34.5938C39.6562 34.37 39.7451 34.1554 39.9034 33.9971C40.0616 33.8389 40.2762 33.75 40.5 33.75H45.5625C45.7863 33.75 46.0009 33.8389 46.1591 33.9971C46.3174 34.1554 46.4062 34.37 46.4062 34.5938C46.4062 34.8175 46.3174 35.0321 46.1591 35.1904C46.0009 35.3486 45.7863 35.4375 45.5625 35.4375Z" fill="#E0E2E5"/>
<path d="M51.4688 48.9375H2.53125C2.30747 48.9375 2.09286 48.8486 1.93463 48.6904C1.77639 48.5321 1.6875 48.3175 1.6875 48.0938C1.6875 47.87 1.77639 47.6554 1.93463 47.4971C2.09286 47.3389 2.30747 47.25 2.53125 47.25H51.4688C51.6925 47.25 51.9071 47.3389 52.0654 47.4971C52.2236 47.6554 52.3125 47.87 52.3125 48.0938C52.3125 48.3175 52.2236 48.5321 52.0654 48.6904C51.9071 48.8486 51.6925 48.9375 51.4688 48.9375Z" fill="#C2C5C6"/>
<path d="M2.53125 39.6562H44.7188V41.3438C44.7188 41.7913 44.541 42.2205 44.2245 42.537C43.908 42.8535 43.4788 43.0312 43.0312 43.0312H4.21875C3.7712 43.0312 3.34197 42.8535 3.02551 42.537C2.70904 42.2205 2.53125 41.7913 2.53125 41.3438V39.6562Z" fill="#FDD14B"/>
<path d="M36.2812 48.0938C39.0772 48.0938 41.3438 45.8272 41.3438 43.0312C41.3438 40.2353 39.0772 37.9688 36.2812 37.9688C33.4853 37.9688 31.2188 40.2353 31.2188 43.0312C31.2188 45.8272 33.4853 48.0938 36.2812 48.0938Z" fill="#6A7073"/>
<path d="M36.2812 44.7188C37.2132 44.7188 37.9688 43.9632 37.9688 43.0312C37.9688 42.0993 37.2132 41.3438 36.2812 41.3438C35.3493 41.3438 34.5938 42.0993 34.5938 43.0312C34.5938 43.9632 35.3493 44.7188 36.2812 44.7188Z" fill="#99A2A7"/>
<path d="M10.9688 48.0938C13.7647 48.0938 16.0312 45.8272 16.0312 43.0312C16.0312 40.2353 13.7647 37.9688 10.9688 37.9688C8.17281 37.9688 5.90625 40.2353 5.90625 43.0312C5.90625 45.8272 8.17281 48.0938 10.9688 48.0938Z" fill="#6A7073"/>
<path d="M10.9688 44.7188C11.9007 44.7188 12.6562 43.9632 12.6562 43.0312C12.6562 42.0993 11.9007 41.3438 10.9688 41.3438C10.0368 41.3438 9.28125 42.0993 9.28125 43.0312C9.28125 43.9632 10.0368 44.7188 10.9688 44.7188Z" fill="#99A2A7"/>
<path d="M16.0312 36.2812H31.2188V37.9688C31.2188 38.4163 31.041 38.8455 30.7245 39.162C30.408 39.4785 29.9788 39.6562 29.5312 39.6562H17.7188C17.2712 39.6562 16.842 39.4785 16.5255 39.162C16.209 38.8455 16.0312 38.4163 16.0312 37.9688V36.2812Z" fill="#EA8333"/>
<path d="M30.5285 32.9062C31.3757 32.9062 32.0625 33.6617 32.0625 34.5938C32.0625 35.5258 31.3757 36.2812 30.5285 36.2812H16.7215C15.8743 36.2812 15.1875 35.5258 15.1875 34.5938C15.1875 33.6617 15.8743 32.9062 16.7215 32.9062H30.5285Z" fill="#794832"/>
<path d="M16.875 29.5312H30.375V32.9062H16.875V29.5312Z" fill="#FDD14B"/>
<path d="M32.9062 30.375C32.9062 31.773 31.719 32.9063 30.2544 32.9063C29.8221 32.9096 29.3953 32.8083 29.0104 32.6112C28.6256 32.4141 28.2941 32.1269 28.0441 31.774C27.7919 32.1243 27.46 32.4097 27.0759 32.6065C26.6917 32.8033 26.2662 32.9059 25.8346 32.9059C25.4029 32.9059 24.9775 32.8033 24.5933 32.6065C24.2091 32.4097 23.8772 32.1243 23.625 31.774C23.3728 32.1243 23.0409 32.4097 22.6567 32.6065C22.2725 32.8033 21.8471 32.9059 21.4154 32.9059C20.9838 32.9059 20.5583 32.8033 20.1741 32.6065C19.79 32.4097 19.4581 32.1243 19.2059 31.774C18.9559 32.1269 18.6244 32.4141 18.2395 32.6112C17.8547 32.8083 17.4279 32.9096 16.9956 32.9063C15.531 32.9063 14.3438 31.773 14.3438 30.375C14.3438 30.1512 14.4326 29.9366 14.5909 29.7784C14.7491 29.6201 14.9637 29.5312 15.1875 29.5312H32.0625C32.2863 29.5312 32.5009 29.6201 32.6591 29.7784C32.8174 29.9366 32.9062 30.1512 32.9062 30.375Z" fill="#3BA673"/>
<path d="M31.2188 22.7813V16.0313C31.2187 15.8626 31.2693 15.6979 31.3638 15.5582C31.4584 15.4186 31.5926 15.3105 31.7492 15.2478L35.9679 13.5603C36.0708 13.5192 36.1808 13.4987 36.2916 13.5001C36.4024 13.5014 36.5118 13.5246 36.6136 13.5682C36.7155 13.6119 36.8077 13.6752 36.8851 13.7545C36.9625 13.8338 37.0235 13.9275 37.0647 14.0304C37.1058 14.1333 37.1263 14.2433 37.125 14.3541C37.1236 14.4649 37.1004 14.5743 37.0568 14.6762C37.0131 14.778 36.9499 14.8703 36.8706 14.9476C36.7912 15.025 36.6975 15.086 36.5946 15.1272L32.9063 16.6025V22.7813H31.2188Z" fill="#E74444"/>
<path d="M31.2188 19.4062H32.9062V22.7812H31.2188V19.4062Z" fill="#CE3536"/>
</symbol>

<symbol viewBox="0 0 40 40" id="arrow_left">
<circle opacity="0" cx="20" cy="20" r="19.5" stroke="white"/>
<path d="M21.8984 17.25C21.8984 17.1797 21.8672 17.1172 21.8203 17.0703L21.4297 16.6797C21.3828 16.6328 21.3125 16.6016 21.25 16.6016C21.1875 16.6016 21.1172 16.6328 21.0703 16.6797L17.4297 20.3203C17.3828 20.3672 17.3516 20.4375 17.3516 20.5C17.3516 20.5625 17.3828 20.6328 17.4297 20.6797L21.0703 24.3203C21.1172 24.3672 21.1875 24.3984 21.25 24.3984C21.3125 24.3984 21.3828 24.3672 21.4297 24.3203L21.8203 23.9297C21.8672 23.8828 21.8984 23.8125 21.8984 23.75C21.8984 23.6875 21.8672 23.6172 21.8203 23.5703L18.75 20.5L21.8203 17.4297C21.8672 17.3828 21.8984 17.3125 21.8984 17.25Z" fill="white"/>
</symbol>

<symbol viewBox="0 0 40 40" id="arrow_right">
<circle opacity="0" cx="20" cy="20" r="19.5" stroke="white"/>
<path d="M22.6484 20.5C22.6484 20.4375 22.6172 20.3672 22.5703 20.3203L18.9297 16.6797C18.8828 16.6328 18.8125 16.6016 18.75 16.6016C18.6875 16.6016 18.6172 16.6328 18.5703 16.6797L18.1797 17.0703C18.1328 17.1172 18.1016 17.1875 18.1016 17.25C18.1016 17.3125 18.1328 17.3828 18.1797 17.4297L21.25 20.5L18.1797 23.5703C18.1328 23.6172 18.1016 23.6875 18.1016 23.75C18.1016 23.8203 18.1328 23.8828 18.1797 23.9297L18.5703 24.3203C18.6172 24.3672 18.6875 24.3984 18.75 24.3984C18.8125 24.3984 18.8828 24.3672 18.9297 24.3203L22.5703 20.6797C22.6172 20.6328 22.6484 20.5625 22.6484 20.5Z" fill="white"/>
</symbol>

<symbol viewBox="0 0 11 17" id="select">
<path d="M6.38386 4.125C7.25529 3.76315 7.72382 2.92064 7.5119 2.09671C7.30011 1.27278 6.46449 0.6875 5.49997 0.6875C4.53559 0.6875 3.69997 1.27278 3.48805 2.09671C3.27626 2.92064 3.74479 3.76315 4.61622 4.125H6.38386Z" fill="#F98AAB"/>
<path d="M3.1624 4.8125C3.08652 4.8125 3.01386 4.7794 2.96188 4.72092C1.81965 3.44293 1.75825 1.46537 2.81866 0.110841C2.88043 0.0280229 2.97982 -0.0130591 3.07835 0.0036877C3.17688 0.0204345 3.25907 0.0922625 3.29311 0.191435C3.32715 0.290607 3.30784 0.401424 3.24236 0.481102C2.35846 1.60994 2.4102 3.25832 3.36279 4.32279C3.43793 4.40718 3.45848 4.53081 3.41491 4.63731C3.37134 4.74368 3.27207 4.8125 3.1624 4.8125Z" fill="#F98AAB"/>
<path d="M8.26694 3.4375C8.16132 3.4375 8.06348 3.39302 8.00849 3.32017C7.9535 3.2472 7.94927 3.15647 7.99744 3.08053C8.54982 2.21095 8.4079 1.15869 7.63664 0.405891C7.56459 0.338669 7.54317 0.245176 7.58069 0.161508C7.61836 0.077839 7.70896 0.0172399 7.81759 0.0031112C7.92621 -0.0110175 8.03578 0.023642 8.10388 0.0935131C9.02947 0.997201 9.19977 2.26018 8.53699 3.30416C8.48514 3.38617 8.38075 3.43761 8.26694 3.4375Z" fill="#F98AAB"/>
<path d="M10.9998 7.86477V12.2986C10.9998 12.2986 10.9998 13.8082 10.0812 14.6822C9.9771 14.7858 9.91938 14.9301 9.92217 15.0799V15.9397C9.92132 16.2487 9.68059 16.499 9.38335 16.5H5.07268C4.77543 16.499 4.53471 16.2487 4.53386 15.9397V15.8361C4.53434 15.3871 4.36044 14.9568 4.05155 14.643C3.53153 14.1164 2.7287 13.2061 2.37846 12.2986C1.83964 10.8981 0.762005 8.93744 0.223186 8.37728C-0.315633 7.81711 0.223186 7.25694 0.762005 7.25694C1.30082 7.25694 2.37846 8.37728 2.91728 9.21759C3.08876 9.48803 3.28947 9.73703 3.5154 9.95981C3.64953 10.0894 3.83787 10.1391 4.01517 10.0914C4.19247 10.0438 4.33412 9.90547 4.391 9.72455C4.49359 9.37922 4.54186 9.01876 4.53386 8.65742V2.21532C4.53216 1.85928 4.74888 1.54156 5.07268 1.42544C5.15866 1.39153 5.24998 1.37451 5.34202 1.37501C5.78843 1.37501 6.15031 1.75123 6.15031 2.21532V5.57645C6.14862 5.22027 6.36533 4.90268 6.68913 4.78656C6.77524 4.75265 6.86656 4.7355 6.9586 4.73613C7.40489 4.73613 7.76677 5.11235 7.76677 5.57645V6.41663C7.76677 6.19385 7.85215 5.98015 8.00386 5.82293C8.08827 5.73379 8.19159 5.66659 8.30559 5.62688C8.39169 5.59296 8.48301 5.57582 8.57506 5.57645C9.02147 5.57645 9.38335 5.95266 9.38335 6.41663V7.81711C9.38335 7.59433 9.4686 7.38063 9.62044 7.22341C9.70472 7.13427 9.80817 7.06707 9.92217 7.02723C10.0272 6.98714 10.1392 6.97087 10.2508 6.9797C10.6836 7.02773 11.0091 7.41227 10.9998 7.86477Z" fill="#F98AAB"/>
<path d="M5.515 1.39259C5.42019 1.39209 5.32612 1.40895 5.23755 1.44256C4.90401 1.55761 4.68077 1.87241 4.68252 2.22519V8.60822C4.69077 8.96624 4.64105 9.32339 4.53536 9.66556C4.49164 9.7941 4.40295 9.90253 4.28564 9.97087C4.42993 10.0556 4.6047 10.0703 4.7611 10.011C4.91763 9.95163 5.03868 9.82458 5.09039 9.66556C5.19608 9.32339 5.2458 8.96624 5.23755 8.60822V2.22519C5.2358 1.87241 5.45904 1.55761 5.79258 1.44256C5.70389 1.40895 5.60982 1.39209 5.515 1.39259Z" fill="#F8EDF0"/>
<path d="M6.90318 4.77259C6.56964 4.88765 6.34641 5.20233 6.34815 5.55523V8.05292C6.34815 8.2062 6.47245 8.33038 6.62573 8.33038C6.77889 8.33038 6.90318 8.2062 6.90318 8.05292V5.55523C6.90156 5.20233 7.12467 4.88765 7.45821 4.77259C7.2792 4.70601 7.0822 4.70601 6.90318 4.77259Z" fill="#F8EDF0"/>
<path d="M8.57114 5.6056C8.45372 5.64495 8.34728 5.71154 8.26034 5.79986C8.10406 5.95563 8.01611 6.16738 8.01611 6.38811V8.05333C8.01611 8.20661 8.14041 8.33078 8.29369 8.33078C8.44697 8.33078 8.57114 8.20661 8.57114 8.05333V6.38811C8.56952 6.03533 8.79275 5.72065 9.1263 5.6056C8.94728 5.53902 8.75028 5.53902 8.57114 5.6056Z" fill="#F8EDF0"/>
<path d="M10.5127 6.94289C10.418 6.94226 10.3238 6.95913 10.2352 6.99273C10.1178 7.03221 10.0112 7.09879 9.9244 7.18711C9.768 7.34289 9.68018 7.55463 9.68018 7.77537V8.3304C9.68018 8.48368 9.80435 8.60797 9.95763 8.60797C10.1109 8.60797 10.2352 8.48368 10.2352 8.3304V7.77537C10.2335 7.42259 10.4567 7.10791 10.7902 6.99273C10.7015 6.95913 10.6075 6.94226 10.5127 6.94289Z" fill="#F8EDF0"/>
<path d="M9.96883 9.625C9.77896 9.625 9.625 9.74047 9.625 9.88286V11.4296C9.625 11.572 9.77896 11.6875 9.96883 11.6875C10.1587 11.6875 10.3125 11.572 10.3125 11.4296V9.88286C10.3125 9.74047 10.1587 9.625 9.96883 9.625Z" fill="#F8EDF0"/>
<path d="M10.09 12.375C9.96697 12.3779 9.86566 12.5214 9.85601 12.7061C9.83895 12.8807 9.78183 13.0408 9.6947 13.1588C9.63531 13.2451 9.61158 13.373 9.63244 13.4931C9.65329 13.6134 9.71566 13.7074 9.79539 13.7388C9.87522 13.7702 9.96009 13.7345 10.0174 13.645C10.1911 13.4029 10.2967 13.0697 10.3125 12.714C10.3123 12.5284 10.2132 12.3775 10.09 12.375Z" fill="#F8EDF0"/>
<path d="M5.9583 15.125H5.7292C5.60264 15.125 5.5 15.2788 5.5 15.4687C5.5 15.6585 5.60264 15.8125 5.7292 15.8125H5.9583C6.08486 15.8125 6.1875 15.6585 6.1875 15.4687C6.1875 15.2788 6.08486 15.125 5.9583 15.125Z" fill="#F8EDF0"/>
<path d="M8.70839 15.125H7.10421C6.97764 15.125 6.875 15.2788 6.875 15.4687C6.875 15.6585 6.97764 15.8125 7.10421 15.8125H8.70839C8.83496 15.8125 8.9375 15.6585 8.9375 15.4687C8.9375 15.2788 8.83496 15.125 8.70839 15.125Z" fill="#F8EDF0"/>
</symbol>

<symbol viewBox="0 0 14 14" id="cart">
<path d="M11.5391 11.9219H3.74609C3.06759 11.9219 2.51562 11.3699 2.51562 10.6914C2.51562 10.0129 3.06759 9.46094 3.74609 9.46094H4.97656L4.23716 10.2812H3.74609C3.5198 10.2812 3.33594 10.4651 3.33594 10.6914C3.33594 10.9177 3.5198 11.1016 3.74609 11.1016H11.5391V11.9219Z" fill="#F9C2D2"/>
<path d="M7.84766 11.1016H11.5391V11.9219H7.84766V11.1016Z" fill="#F98AAB"/>
<path opacity="0.5" d="M2.96349 4.53923L2.59695 2.89844H0V2.07812H3.25462L3.9652 5.26004L2.96349 4.53923Z" fill="#F98AAB"/>
<path d="M9.60994 4.67966L9.48739 4.53906H2.96533L4.23827 10.2812H11.4476L12.8932 4.68727C12.6124 4.75743 10.9513 6.22068 9.60994 4.67966ZM11.6735 6.12801L11.4482 7H9.52477L9.62906 5.7487C10.2306 6.11529 10.9699 6.26109 11.6735 6.12801ZM6.9955 7L6.85875 5.35938H8.83874L8.70199 7H6.9955ZM8.63366 7.82031L8.49692 9.46094H7.20055L7.0638 7.82031H8.63366ZM6.03601 5.35938L6.17275 7H4.35122L3.98752 5.35938H6.03601ZM4.53306 7.82031H6.24108L6.37783 9.46094H4.89678L4.53306 7.82031ZM9.31972 9.46094L9.45646 7.82031H11.2363L10.8124 9.46094H9.31972Z" fill="#F9C2D2"/>
<path d="M9.60884 4.67966L9.48629 4.53906H7.84766V5.35938H8.83764L8.70089 7H7.84766V7.82031H8.63256L8.49581 9.46094H7.84766V10.2812H11.4465L12.8921 4.68727C12.6113 4.7574 10.9502 6.22065 9.60884 4.67966ZM10.8113 9.46094H9.31861L9.45536 7.82031H11.2352L10.8113 9.46094ZM11.6724 6.12801L11.4471 7H9.52366L9.62795 5.7487C10.2295 6.11529 10.9688 6.26109 11.6724 6.12801Z" fill="#F98AAB"/>
<path d="M5.38672 13.5625C4.70821 13.5625 4.15625 13.0105 4.15625 12.332C4.15625 11.6535 4.70821 11.1016 5.38672 11.1016C6.06523 11.1016 6.61719 11.6535 6.61719 12.332C6.61719 13.0105 6.06523 13.5625 5.38672 13.5625Z" fill="#665151"/>
<path d="M9.48828 13.5625C8.80977 13.5625 8.25781 13.0105 8.25781 12.332C8.25781 11.6535 8.80977 11.1016 9.48828 11.1016C10.1668 11.1016 10.7188 11.6535 10.7188 12.332C10.7188 13.0105 10.1668 13.5625 9.48828 13.5625Z" fill="#4D3535"/>
<path d="M11.1289 6.17969C9.50195 6.17969 8.25781 4.85045 8.25781 3.30859C8.25781 1.72564 9.54595 0.4375 11.1289 0.4375C12.7119 0.4375 14 1.72564 14 3.30859C14 4.93005 12.6829 6.17969 11.1289 6.17969Z" fill="#F9C2D2"/>
<path d="M5.38672 12.7422C5.61324 12.7422 5.79688 12.5586 5.79688 12.332C5.79688 12.1055 5.61324 11.9219 5.38672 11.9219C5.1602 11.9219 4.97656 12.1055 4.97656 12.332C4.97656 12.5586 5.1602 12.7422 5.38672 12.7422Z" fill="#FFF7E6"/>
<path d="M9.48828 12.7422C9.7148 12.7422 9.89844 12.5586 9.89844 12.332C9.89844 12.1055 9.7148 11.9219 9.48828 11.9219C9.26176 11.9219 9.07812 12.1055 9.07812 12.332C9.07812 12.5586 9.26176 12.7422 9.48828 12.7422Z" fill="#FFEACC"/>
<path d="M14 3.30859C14 1.72564 12.7119 0.4375 11.1289 0.4375V6.17969C12.6829 6.17969 14 4.93005 14 3.30859Z" fill="#F98AAB"/>
<path d="M12.3594 2.89844H11.5391V2.07812H10.7188V2.89844H9.89844V3.71875H10.7188V4.53906H11.5391V3.71875H12.3594V2.89844Z" fill="white"/>
<path d="M11.1289 2.07812V4.53906H11.5391V3.71875H12.3594V2.89844H11.5391V2.07812H11.1289Z" fill="white"/>
</symbol>

<symbol viewBox="0 0 16 13" id="order">
<path d="M2.15625 4.55225H4.57776C4.75032 4.55225 4.89026 4.41231 4.89026 4.23975C4.89026 4.06718 4.75032 3.92725 4.57776 3.92725H2.15625C1.98369 3.92725 1.84375 4.06718 1.84375 4.23975C1.84375 4.41231 1.98366 4.55225 2.15625 4.55225Z" fill="#F98AAB"/>
<path d="M2.15625 6.7168H4.57776C4.75032 6.7168 4.89026 6.57686 4.89026 6.4043C4.89026 6.23173 4.75032 6.0918 4.57776 6.0918H2.15625C1.98369 6.0918 1.84375 6.23173 1.84375 6.4043C1.84375 6.57686 1.98366 6.7168 2.15625 6.7168Z" fill="#F98AAB"/>
<path d="M5.15876 11.955C5.09322 11.7978 4.90838 11.7207 4.75063 11.7859C4.59335 11.851 4.51666 12.037 4.58188 12.1941C4.64719 12.3514 4.83222 12.4282 4.98969 12.3631C5.14688 12.2982 5.22413 12.112 5.15876 11.955Z" fill="#F98AAB"/>
<path d="M15.9162 7.11889L12.1992 3.12888L13.3372 1.99347C13.5349 1.798 13.6438 1.53719 13.6438 1.2591C13.6438 0.984877 13.5376 0.726751 13.3449 0.532345C12.9464 0.129844 12.2904 0.124657 11.8826 0.520876C11.8816 0.521845 11.8806 0.522813 11.8796 0.523782L10.3193 2.08038H9.7363V0.880283C9.7363 0.70772 9.59636 0.567782 9.4238 0.567782H7.76902V0.312501C7.76902 0.139938 7.62908 0 7.45652 0C7.28395 0 7.14401 0.139938 7.14401 0.312501V0.567782H6.00242V0.312501C6.00242 0.139938 5.86248 0 5.68992 0C5.51735 0 5.37742 0.139938 5.37742 0.312501V0.567782H4.23579V0.312501C4.23579 0.139938 4.09585 0 3.92329 0C3.75073 0 3.61079 0.139938 3.61079 0.312501V0.567782H2.46913V0.312501C2.46913 0.139938 2.32919 0 2.15663 0C1.98407 0 1.84413 0.139938 1.84413 0.312501V0.567782H0.312501C0.139938 0.567782 0 0.70772 0 0.880283V12.0741C0 12.2466 0.139938 12.3866 0.312501 12.3866H3.50226C3.67482 12.3866 3.81476 12.2466 3.81476 12.0741C3.81476 11.9015 3.67482 11.7616 3.50226 11.7616H0.625001V1.19278H1.84413V1.47632C1.84413 1.64888 1.98407 1.78882 2.15663 1.78882C2.32919 1.78882 2.46913 1.64888 2.46913 1.47632V1.19278H3.61076V1.47632C3.61076 1.64888 3.75069 1.78882 3.92326 1.78882C4.09582 1.78882 4.23576 1.64888 4.23576 1.47632V1.19278H5.37739V1.47632C5.37739 1.64888 5.51732 1.78882 5.68989 1.78882C5.86245 1.78882 6.00239 1.64888 6.00239 1.47632V1.19278H7.14398V1.47632C7.14398 1.64888 7.28392 1.78882 7.45648 1.78882C7.62905 1.78882 7.76898 1.64888 7.76898 1.47632V1.19278H9.11127V2.08213C8.54995 2.10494 8.01389 2.34197 7.61589 2.73776L5.31617 5.03745C5.1772 5.17642 5.20301 5.41445 5.36742 5.52085C5.62636 5.68832 5.91661 5.7966 6.21989 5.84026C6.32098 5.85482 6.42351 5.8622 6.52686 5.8622C6.52736 5.8622 6.52783 5.86217 6.52829 5.86217L6.16957 6.22004C6.14354 6.24604 6.12289 6.27629 6.10761 6.30895L5.10514 7.8147C5.01479 7.95039 4.97792 8.1053 4.99142 8.25548H2.15663C1.98407 8.25548 1.84413 8.39542 1.84413 8.56798C1.84413 8.74055 1.98407 8.88049 2.15663 8.88049H5.67611C5.81136 8.88049 5.94776 8.83539 6.05914 8.7597L7.58286 7.72436C7.60089 7.71255 7.6183 7.69861 7.63355 7.68342L8.34027 6.97836L9.1113 7.7477V11.7616H6.25167C6.07911 11.7616 5.93917 11.9015 5.93917 12.0741C5.93917 12.2466 6.07911 12.3866 6.25167 12.3866H9.4238C9.59636 12.3866 9.7363 12.2466 9.7363 12.0741V8.35773C10.1314 8.68583 10.6239 8.86467 11.1441 8.86467H12.3908C12.6501 8.86467 12.9015 8.9722 13.079 9.15802L15.4599 11.6882C15.6493 11.8895 16 11.7508 16 11.4741V7.33189C16 7.25286 15.9701 7.17673 15.9162 7.11889ZM8.05789 3.17972C8.36058 2.87704 8.77508 2.70532 9.20314 2.70532H9.69274L7.7457 4.64767C7.56555 4.82063 7.39502 4.99013 7.1643 5.09707C6.82386 5.25485 6.42833 5.28004 6.07042 5.16713L8.05789 3.17972ZM12.3193 0.967971C12.4824 0.810908 12.7428 0.812564 12.9009 0.972221C12.9769 1.04891 13.0187 1.15078 13.0187 1.2591C13.0187 1.36897 12.9758 1.47194 12.8968 1.55007L9.63086 4.80838L9.47349 4.65098C9.32611 4.5036 9.14014 4.39535 8.9393 4.33982L12.3193 0.967971ZM5.70786 8.24277C5.68111 8.26095 5.65617 8.25886 5.63298 8.23586C5.59842 8.20161 5.61595 8.17527 5.62539 8.16108L6.44201 6.93448L6.92442 7.41614L5.70786 8.24277ZM7.41311 7.02051L6.83333 6.44073L7.42877 5.8466C7.48498 6.05007 7.59636 6.23582 7.74536 6.38479L7.89783 6.53695L7.41311 7.02051ZM15.375 10.686L13.5326 8.72808C13.2362 8.4177 12.82 8.2397 12.3908 8.2397H11.1441C10.7219 8.2397 10.3249 8.07567 10.0263 7.77786L8.18617 5.94173C7.92052 5.74251 7.97986 5.30085 8.18627 5.09123C8.41817 4.86554 8.80471 4.86601 9.03152 5.09288L10.5266 6.58795C10.6469 6.70817 10.8482 6.7082 10.9686 6.58795C11.0906 6.46592 11.0906 6.26804 10.9686 6.14598L10.0728 5.25026L11.7565 3.57057L15.375 7.45492V10.686Z" fill="#F98AAB"/>
</symbol>

<symbol viewBox="0 0 11 10" id="left_quoutes">
<path d="M7.17215 0.00012207H9.70322C10.0548 0.00012207 10.3536 0.132713 10.5997 0.397819C10.8457 0.662975 10.9688 0.984924 10.9688 1.36379V4.09103C10.9688 4.46987 10.8458 4.79177 10.5997 5.05687C10.3536 5.32195 10.0547 5.45459 9.70322 5.45459H8.2268C8.05109 5.45459 7.90165 5.52091 7.7786 5.65345C7.65555 5.78592 7.59405 5.94699 7.59405 6.13648V6.36362C7.59405 6.86555 7.75886 7.29392 8.08839 7.6491C8.41795 8.00411 8.81558 8.18168 9.28144 8.18168H9.70322C9.81754 8.18168 9.91637 8.22678 9.9999 8.31668C10.0834 8.40659 10.1251 8.51316 10.1251 8.63627V9.54547C10.1251 9.66839 10.0834 9.77516 9.9999 9.86508C9.9163 9.95496 9.81756 10.0001 9.70322 10.0001H9.28141C8.82438 10.0001 8.38826 9.90406 7.97299 9.71237C7.55774 9.52065 7.19854 9.26134 6.89533 8.93461C6.59219 8.60786 6.35158 8.22089 6.17364 7.77341C5.99571 7.32596 5.90671 6.85605 5.90671 6.36365V1.36369C5.90671 0.984825 6.02976 0.662901 6.27579 0.397794C6.52182 0.132688 6.82067 0.00012207 7.17215 0.00012207Z" fill="#F6762C"/>
<path d="M0.369764 0.397697C0.615769 0.132591 0.914571 0 1.26615 0H3.79711C4.14869 0 4.44747 0.132591 4.69349 0.397697C4.9395 0.662878 5.0625 0.984802 5.0625 1.36367V4.0909C5.0625 4.46974 4.9395 4.79164 4.69349 5.05675C4.44747 5.32183 4.14866 5.45447 3.79711 5.45447H2.32069C2.14498 5.45447 1.99543 5.52079 1.87241 5.65333C1.7495 5.78587 1.68786 5.94687 1.68786 6.13636V6.3635C1.68786 6.86543 1.85267 7.2938 2.18227 7.64898C2.5118 8.00399 2.90934 8.18156 3.37524 8.18156H3.79711C3.91134 8.18156 4.01026 8.22666 4.0937 8.31656C4.1772 8.40647 4.21901 8.51303 4.21901 8.63615V9.54535C4.21901 9.66826 4.1772 9.77503 4.0937 9.86496C4.01029 9.95484 3.91136 9.99996 3.79711 9.99996H3.37524C2.91827 9.99996 2.48218 9.90394 2.06686 9.71225C1.65168 9.52052 1.29253 9.26121 0.9893 8.93449C0.686089 8.60774 0.445348 8.22066 0.267516 7.77329C0.0896155 7.32594 0.000573056 6.85593 0.000573056 6.36353V1.36357C0.000642314 0.984703 0.123575 0.662779 0.369764 0.397697Z" fill="#F6762C"/>
</symbol>

<symbol viewBox="0 0 11 10" id="right_quoutes">
<path d="M3.7966 0.00012207H1.26553C0.913954 0.00012207 0.615174 0.132713 0.369054 0.397819C0.123049 0.662975 0 0.984924 0 1.36379V4.09103C0 4.46987 0.122979 4.79177 0.369054 5.05687C0.615151 5.32195 0.914023 5.45459 1.26553 5.45459H2.74195C2.91766 5.45459 3.0671 5.52091 3.19015 5.65345C3.3132 5.78592 3.3747 5.94699 3.3747 6.13648V6.36362C3.3747 6.86555 3.20989 7.29392 2.88036 7.6491C2.5508 8.00411 2.15317 8.18168 1.68731 8.18168H1.26553C1.15121 8.18168 1.05238 8.22678 0.968853 8.31668C0.885397 8.40659 0.843634 8.51316 0.843634 8.63627V9.54547C0.843634 9.66839 0.885397 9.77516 0.968853 9.86508C1.05245 9.95496 1.15119 10.0001 1.26553 10.0001H1.68734C2.14437 10.0001 2.58049 9.90406 2.99576 9.71237C3.41101 9.52065 3.77021 9.26134 4.07342 8.93461C4.37656 8.60786 4.61717 8.22089 4.79511 7.77341C4.97304 7.32596 5.06204 6.85605 5.06204 6.36365V1.36369C5.06204 0.984825 4.93899 0.662901 4.69296 0.397794C4.44693 0.132688 4.14808 0.00012207 3.7966 0.00012207Z" fill="#F6762C"/>
<path d="M10.599 0.397697C10.353 0.132591 10.0542 0 9.7026 0H7.17164C6.82006 0 6.52128 0.132591 6.27526 0.397697C6.02925 0.662878 5.90625 0.984802 5.90625 1.36367V4.0909C5.90625 4.46974 6.02925 4.79164 6.27526 5.05675C6.52128 5.32183 6.82009 5.45447 7.17164 5.45447H8.64806C8.82377 5.45447 8.97332 5.52079 9.09634 5.65333C9.21925 5.78587 9.28089 5.94687 9.28089 6.13636V6.3635C9.28089 6.86543 9.11608 7.2938 8.78648 7.64898C8.45695 8.00399 8.05941 8.18156 7.59351 8.18156H7.17164C7.05741 8.18156 6.95849 8.22666 6.87505 8.31656C6.79155 8.40647 6.74974 8.51303 6.74974 8.63615V9.54535C6.74974 9.66826 6.79155 9.77503 6.87505 9.86496C6.95846 9.95484 7.05739 9.99996 7.17164 9.99996H7.59351C8.05048 9.99996 8.48657 9.90394 8.90189 9.71225C9.31707 9.52052 9.67622 9.26121 9.97945 8.93449C10.2827 8.60774 10.5234 8.22066 10.7012 7.77329C10.8791 7.32594 10.9682 6.85593 10.9682 6.36353V1.36357C10.9681 0.984703 10.8452 0.662779 10.599 0.397697Z" fill="#F6762C"/>
</symbol>

</svg>